<?xml version="1.0" encoding="UTF-8"?>
<svg id="Layer_1" data-name="Layer 1" xmlns="http://www.w3.org/2000/svg" viewBox="0 0 883.22 291.29">
  <defs>
    <style>
      .cls-1 {
        fill: #fcf2d4;
      }

      .cls-2 {
        fill: #f492b0;
      }

      .cls-3 {
        fill: #fcdad8;
      }

      .cls-4 {
        fill: #f9c0c8;
      }

      .cls-5 {
        fill: #fba8ba;
      }
    </style>
  </defs>
  <g>
    <g>
      <path class="cls-2" d="M187.04,65.1h-49.05c-6.4,0-11.59,5.19-11.59,11.59v49.74h60.64v-61.33Z"/>
      <path class="cls-2" d="M176.01,159.23c-2.64,1.54-5.43,2.31-8.03,2.31-2.6,0-5.02-.77-6.91-2.32-3.58-2.93-4.51-7.92-2.55-13.7,2.07-6.09,10.77-10.5,19.13-14.07h-51.25v82.76c0,6.4,5.19,11.59,11.59,11.59h49.05v-82.04c-3.22,6.75-7.12,13.19-11.03,15.47Z"/>
      <path class="cls-2" d="M215.58,103.66c-.51-1.72-2.25-3.32-4.43-4.08-.68-.23-1.65-.47-2.8-.47-1.48,0-3.26.39-5.1,1.69-4.35,3.08-7.42,14.08-8.74,18.77-.34,1.22-.58,2.06-.78,2.67.13-.05.27-.1.41-.15,17.98-6.29,22.78-13.86,21.43-18.44Z"/>
      <path class="cls-2" d="M221.92,136.57l-.66,4.98c-9.43-1.25-18.7-5.64-24.31-8.75,3.86,6.73,11.31,21.6,9.31,33.08l-4.95-.86c1.8-10.33-5.91-24.9-9.25-30.6v91.37h81.84c6.4,0,11.59-5.19,11.59-11.59v-82.76h-80.04c4.81,2.21,10.67,4.35,16.48,5.12Z"/>
      <path class="cls-2" d="M200.35,96.7c3.73-2.64,8.27-3.31,12.45-1.86,3.72,1.29,6.63,4.13,7.6,7.4.99,3.35,2.17,14.89-23.43,24.19h88.52v-49.74c0-6.4-5.19-11.59-11.59-11.59h-81.84v45.3c1.86-5.34,4.52-11.04,8.29-13.7Z"/>
      <path class="cls-2" d="M184.16,134.18c-7.63,3.14-19.15,7.89-20.88,12.96-1.27,3.73-.92,6.64.97,8.19,2.11,1.73,5.82,1.55,9.23-.44,3.88-2.26,8.8-12.12,12.57-21.49-.62.26-1.25.52-1.9.78Z"/>
    </g>
    <g>
      <path class="cls-4" d="M143.68,215.96c-.99-2.82-3.81-2.58-6.17-1.77-1.48.5-2.86,1.26-4.13,2.15l.89-1.99c1.06-2.53,4.53-10.71-1.44-9.15-3.82,1-6.36,5.12-7.68,8.56-.26.69-.43,1.44-.68,2.1-.02.05-.03.12-.09.14-.25-.56-.5-1.14-.78-1.69-1.47-2.92-4.9-8.77-8.63-5.05-2.69,2.68-.81,5.97,1.26,8.33,1.28,1.45,2.8,2.66,4.32,3.85-.09.03-.16,0-.24-.01-.69-.13-1.56-.5-2.29-.68-3.21-.81-8.85-1.71-11.1,1.38-2.36,3.24,2.04,3.97,4.31,4.18,1.87.17,3.75.11,5.63.06l5-.38c-1.8.53-3.59,1.19-5.24,2.08-2.84,1.52-6.08,4.23-3.72,7.68,1.91,2.79,5.72.54,7.76-.92,1.63-1.17,3.11-2.56,4.5-4-.14.83-.42,1.65-.59,2.48-.54,2.62-1.2,7.96,2.53,8.42,1,.12,2.4-.15,3.3-.6,3.17-1.59,2.88-5.77,2.21-8.71-.02,0-.11-.58-.12-.58l-.7-2.76h0c1.23,1.35,4.5,5.44,5.84,6.14,2.18,1.13,3.41,1.24,5.58-.49,1.95-1.56-2.86-6.57-3.54-7.2-.07-.13-.25-.27-.37-.36-.41-.32-.99-.66-1.45-.93-.97-.57-2-1.04-3.04-1.47.78-.25,1.56-.5,2.33-.8,3.16-1.23,7.99-3.87,6.54-8.02ZM129.39,226.06c-1.1.25-3.14-.38-3.51-1.55-.56-1.77-.16-4.23,1.84-4.84,3.77-1.16,5.41,5.53,1.67,6.39Z"/>
      <path class="cls-1" d="M127.72,219.67c3.77-1.16,5.41,5.53,1.67,6.39-1.1.25-3.14-.38-3.51-1.55-.56-1.77-.16-4.23,1.84-4.84Z"/>
    </g>
    <g>
      <path class="cls-4" d="M178,177.36c-1.29-3.68-4.97-3.37-8.06-2.31-1.93.66-3.73,1.65-5.4,2.8l1.16-2.59c1.39-3.31,5.91-13.98-1.88-11.95-4.98,1.3-8.31,6.68-10.02,11.18-.34.9-.56,1.88-.89,2.75-.03.07-.04.16-.12.18-.33-.74-.65-1.48-1.02-2.2-1.92-3.81-6.39-11.45-11.26-6.6-3.51,3.5-1.06,7.8,1.64,10.87,1.67,1.9,3.66,3.48,5.64,5.03-.11.05-.2,0-.31-.02-.9-.17-2.03-.65-2.98-.89-4.18-1.06-11.55-2.23-14.48,1.8-3.08,4.23,2.66,5.18,5.62,5.45,2.44.23,4.9.14,7.35.07l6.53-.5c-2.35.69-4.68,1.56-6.84,2.72-3.71,1.99-7.94,5.52-4.86,10.03,2.49,3.65,7.46.71,10.13-1.2,2.13-1.53,4.05-3.34,5.87-5.22-.19,1.09-.54,2.15-.77,3.24-.7,3.42-1.57,10.39,3.3,10.99,1.3.16,3.14-.19,4.31-.78,4.14-2.07,3.76-7.53,2.88-11.36-.03,0-.14-.75-.15-.76l-.92-3.6h0c1.61,1.77,5.87,7.1,7.62,8.01,2.85,1.48,4.45,1.62,7.28-.64,2.54-2.04-3.73-8.57-4.62-9.39-.1-.17-.32-.35-.48-.47-.54-.41-1.3-.86-1.89-1.21-1.27-.74-2.61-1.35-3.96-1.92,1.02-.33,2.04-.65,3.04-1.04,4.12-1.61,10.42-5.05,8.53-10.46ZM159.35,190.54c-1.44.33-4.09-.49-4.58-2.02-.73-2.31-.2-5.52,2.4-6.32,4.92-1.51,7.07,7.21,2.18,8.34Z"/>
      <path class="cls-1" d="M157.17,182.2c4.92-1.51,7.07,7.21,2.18,8.34-1.44.33-4.09-.49-4.58-2.02-.73-2.31-.2-5.52,2.4-6.32Z"/>
    </g>
    <g>
      <path class="cls-4" d="M136.8,156.9c-.22-3.3-3.29-3.87-6.05-3.71-1.72.1-3.42.5-5.04,1.07l1.54-1.85c1.88-2.38,7.98-10.06,1.17-10.17-4.36-.07-8.29,3.57-10.71,6.85-.48.65-.88,1.41-1.35,2.04-.04.05-.07.12-.14.12-.1-.67-.2-1.36-.33-2.03-.7-3.54-2.62-10.79-7.69-7.93-3.65,2.06-2.63,6.12-1.12,9.24.93,1.93,2.2,3.66,3.46,5.38-.1.01-.17-.04-.25-.08-.7-.34-1.51-.99-2.23-1.4-3.17-1.81-8.92-4.43-12.22-1.81-3.47,2.75,1,4.82,3.35,5.72,1.94.74,3.97,1.22,5.98,1.72l5.44,1.07c-2.08.03-4.17.21-6.2.66-3.47.78-7.72,2.7-6.23,7.08,1.21,3.54,5.93,2.27,8.53,1.31,2.08-.77,4.06-1.8,5.97-2.93-.4.84-.93,1.63-1.36,2.47-1.35,2.63-3.63,8.12.2,9.71,1.02.43,2.6.55,3.69.34,3.84-.75,4.77-5.29,4.92-8.62-.02,0,.05-.65.05-.65l.07-3.14h0c.91,1.81,3.18,7.12,4.4,8.26,1.99,1.85,3.26,2.33,6.08,1.13,2.53-1.08-1.1-7.83-1.64-8.71-.04-.16-.18-.36-.28-.49-.35-.46-.86-1-1.27-1.41-.87-.89-1.82-1.69-2.8-2.47.91-.04,1.81-.07,2.72-.16,3.72-.38,9.64-1.76,9.33-6.6ZM118.61,163.42c-1.25-.06-3.23-1.33-3.28-2.68-.07-2.05,1.08-4.55,3.39-4.61,4.35-.12,4.13,7.48-.11,7.29Z"/>
      <path class="cls-1" d="M118.72,156.13c4.35-.12,4.13,7.48-.11,7.29-1.25-.06-3.23-1.33-3.28-2.68-.07-2.05,1.08-4.55,3.39-4.61Z"/>
    </g>
    <g>
      <path class="cls-4" d="M307.53,135.77c-.5-3.51-3.84-3.87-6.77-3.47-1.83.25-3.61.82-5.3,1.55l1.49-2.11c1.82-2.7,7.71-11.42.42-10.97-4.67.29-8.57,4.5-10.89,8.2-.46.74-.83,1.58-1.28,2.29-.03.06-.06.14-.14.14-.17-.71-.32-1.44-.52-2.14-1.04-3.73-3.69-11.32-8.88-7.85-3.74,2.5-2.31,6.76-.44,9.97,1.15,1.98,2.65,3.74,4.14,5.47-.11.02-.18-.03-.27-.07-.77-.31-1.7-.94-2.5-1.32-3.54-1.67-9.9-4.01-13.22-.93-3.48,3.23,1.47,5.08,4.05,5.84,2.14.63,4.34.98,6.54,1.35l5.91.7c-2.22.2-4.44.57-6.57,1.22-3.65,1.12-8.04,3.53-6.08,8.08,1.58,3.68,6.52,1.94,9.23.7,2.16-.99,4.2-2.26,6.14-3.62-.36.94-.86,1.82-1.25,2.75-1.22,2.92-3.21,8.98,1.01,10.37,1.13.37,2.83.38,3.97.06,4.05-1.12,4.67-6.05,4.56-9.62-.02,0,0-.7,0-.7l-.19-3.36h0c1.12,1.86,3.99,7.36,5.39,8.47,2.28,1.82,3.68,2.23,6.6.7,2.62-1.37-1.82-8.29-2.48-9.18-.06-.17-.22-.37-.34-.5-.41-.46-1-1-1.47-1.41-1-.88-2.09-1.66-3.19-2.41.97-.11,1.93-.22,2.89-.4,3.95-.71,10.17-2.67,9.43-7.83ZM288.6,144.24c-1.34.04-3.56-1.15-3.73-2.6-.25-2.19.78-4.95,3.24-5.21,4.65-.49,5.03,7.66.49,7.81Z"/>
      <path class="cls-1" d="M288.12,136.43c4.65-.49,5.03,7.66.49,7.81-1.34.04-3.56-1.15-3.73-2.6-.25-2.19.78-4.95,3.24-5.21Z"/>
    </g>
    <g>
      <path class="cls-4" d="M298.85,76.77c-.57-3.97-4.34-4.37-7.66-3.92-2.07.28-4.09.92-5.99,1.76l1.69-2.38c2.05-3.06,8.72-12.91.47-12.41-5.28.32-9.69,5.09-12.31,9.28-.52.84-.94,1.79-1.44,2.59-.04.06-.07.16-.15.16-.19-.81-.36-1.62-.59-2.42-1.18-4.22-4.17-12.8-10.04-8.88-4.23,2.83-2.61,7.65-.5,11.27,1.31,2.24,3,4.23,4.68,6.18-.12.02-.21-.04-.31-.08-.87-.35-1.92-1.06-2.83-1.49-4.01-1.89-11.2-4.53-14.95-1.05-3.94,3.65,1.66,5.74,4.58,6.6,2.42.71,4.91,1.11,7.39,1.53l6.68.79c-2.51.23-5.02.64-7.43,1.38-4.13,1.27-9.09,3.99-6.88,9.14,1.79,4.17,7.38,2.19,10.44.79,2.45-1.12,4.74-2.56,6.95-4.09-.4,1.06-.97,2.06-1.41,3.11-1.38,3.31-3.63,10.16,1.15,11.73,1.28.42,3.2.43,4.49.07,4.58-1.27,5.28-6.84,5.15-10.88-.03,0,0-.79,0-.8l-.21-3.8h0c1.27,2.1,4.51,8.32,6.09,9.58,2.57,2.05,4.16,2.52,7.46.79,2.96-1.55-2.06-9.37-2.8-10.38-.06-.19-.25-.42-.39-.57-.46-.52-1.14-1.13-1.66-1.59-1.13-1-2.36-1.88-3.61-2.72,1.09-.13,2.19-.25,3.27-.45,4.47-.81,11.5-3.02,10.67-8.85ZM277.45,86.36c-1.52.05-4.03-1.3-4.21-2.94-.28-2.48.89-5.6,3.66-5.89,5.25-.55,5.69,8.66.55,8.83Z"/>
      <path class="cls-1" d="M276.9,77.53c5.25-.55,5.69,8.66.55,8.83-1.52.05-4.03-1.3-4.21-2.94-.28-2.48.89-5.6,3.66-5.89Z"/>
    </g>
    <g>
      <path class="cls-3" d="M107.22,207.34c.54.56,3.28.35,5.48-.94,2.65-1.55,4.76-4.35,4.45-5.11-.39-.95-5.01-.04-8.09,2.46-.89.72-2.37,3.05-1.84,3.6Z"/>
      <path class="cls-3" d="M117.68,200.19c.74-.21,1.86-2.72,1.78-5.27-.11-3.07-1.57-6.26-2.39-6.34-1.02-.11-2.41,4.39-1.68,8.29.21,1.12,1.56,3.53,2.29,3.33Z"/>
      <path class="cls-3" d="M101.65,193.68c-.16.95,2.09,3.54,5.02,4.78,3.52,1.5,7.9,1.52,8.42.64.66-1.1-3.69-5.04-8.48-6.26-1.38-.35-4.81-.1-4.96.84Z"/>
    </g>
    <g>
      <path class="cls-3" d="M291.81,46.77c-.77.28-1.75,3.02-1.44,5.7.36,3.23,2.17,6.47,3.03,6.5,1.09.03,2.19-4.83,1.1-8.88-.31-1.17-1.93-3.6-2.69-3.32Z"/>
      <path class="cls-3" d="M294.23,59.95c-.12.81,1.83,2.97,4.33,3.98,3.01,1.21,6.72,1.17,7.16.41.54-.94-3.21-4.22-7.29-5.18-1.17-.28-4.08,0-4.2.79Z"/>
      <path class="cls-3" d="M307.41,47.25c-.85-.56-4.32.5-6.78,2.8-2.96,2.76-4.86,6.98-4.24,7.87.78,1.11,6.45-1.4,9.69-5.51.93-1.18,2.16-4.61,1.32-5.16Z"/>
    </g>
    <g>
      <path class="cls-3" d="M167.97,237.55c-.22-.74-2.74-1.83-5.29-1.71-3.07.14-6.24,1.65-6.31,2.47-.1,1.03,4.42,2.36,8.31,1.58,1.12-.22,3.51-1.6,3.3-2.33Z"/>
      <path class="cls-3" d="M155.38,239.02c-.76-.16-2.91,1.54-4.02,3.84-1.33,2.77-1.51,6.27-.83,6.73.86.57,4.18-2.77,5.34-6.56.33-1.09.26-3.85-.49-4.01Z"/>
      <path class="cls-3" d="M153.88,232.87c-.69-.36-3.22.7-4.91,2.61-2.03,2.3-3.16,5.63-2.62,6.25.67.78,4.77-1.53,6.92-4.87.62-.96,1.29-3.64.62-3.99Z"/>
      <path class="cls-3" d="M166.56,252.23c.58-.77-.21-4.1-2.23-6.56-2.43-2.96-6.29-5.01-7.16-4.48-1.1.67.93,6.17,4.6,9.48,1.06.95,4.22,2.32,4.79,1.56Z"/>
    </g>
    <g>
      <path class="cls-3" d="M299,173.76c-.08-.81-2.47-2.46-5.14-2.86-3.21-.48-6.81.44-7.06,1.27-.31,1.04,4.1,3.35,8.3,3.34,1.21,0,3.97-.95,3.9-1.75Z"/>
      <path class="cls-3" d="M285.63,172.72c-.75-.32-3.34,1.01-4.96,3.17-1.95,2.6-2.85,6.2-2.23,6.81.77.77,4.9-2.02,6.88-5.72.57-1.06,1.05-3.95.31-4.26Z"/>
      <path class="cls-3" d="M285.33,166.03c-.64-.51-3.49.07-5.63,1.71-2.58,1.98-4.42,5.2-4,5.95.54.95,5.26-.62,8.17-3.64.84-.87,2.08-3.51,1.45-4.02Z"/>
      <path class="cls-3" d="M294.54,188.71c.76-.68.62-4.3-.97-7.27-1.91-3.57-5.51-6.48-6.52-6.11-1.27.47-.29,6.6,2.84,10.78.9,1.2,3.9,3.27,4.65,2.59Z"/>
    </g>
  </g>
  <g>
    <g>
      <path d="M354.37,112.31h15.68l18.39,33.69h.19l18.2-33.69h15.77v63.44h-15.49v-34.94h-.19l-13.44,23.23h-9.99l-13.44-23.32h-.28v35.03h-15.4v-63.44Z"/>
      <path d="M432.67,112.31h25.2c16.33,0,23.61,9.2,23.61,21.89,0,14.12-9.8,21.09-24.83,21.09h-8.77v20.46h-15.21v-63.44ZM454.88,142.25c6.91,0,10.45-3.13,10.45-8.4,0-4.82-3.17-8.4-10.17-8.4h-7.28v16.8h7Z"/>
      <path d="M487.92,112.31h25.2c16.33,0,23.61,9.2,23.61,21.89,0,14.12-9.8,21.09-24.83,21.09h-8.77v20.46h-15.21v-63.44ZM510.13,142.25c6.91,0,10.45-3.13,10.45-8.4,0-4.82-3.17-8.4-10.17-8.4h-7.28v16.8h7Z"/>
      <path d="M548.87,166.46l9.15-10.63c5.04,5.27,11.11,7.51,15.68,7.51,5.23,0,7.47-2.5,7.47-5.36,0-3.48-2.33-5-9.8-7.42-10.08-3.31-20.16-7.86-20.16-20.37,0-10.54,9.43-18.5,21.75-18.67,8.68-.18,16.61,3.04,22.96,8.22l-8.77,10.9c-5.69-4.29-9.8-5.99-13.53-5.99s-6.16,1.88-6.16,4.91c-.09,3.04,2.33,4.65,9.52,7.33,11.67,4.29,20.63,7.15,20.63,19.39,0,14.92-13.35,20.28-24.36,20.28-8.49,0-17.27-3.13-24.36-10.1Z"/>
      <path d="M603.18,109.99h14.56v26.98l.19.09c3.55-3.84,8.49-5.81,14.09-5.81,9.43,0,16.43,4.38,16.43,18.14v26.36h-14.56v-22.87c0-7.06-2.52-9.2-7.65-9.2s-8.49,3.22-8.49,10.01v22.07h-14.56v-65.76Z"/>
      <path d="M653.58,153.95c0-13.31,9.99-22.7,24.73-22.7s24.64,9.2,24.64,22.7-10.27,22.61-24.64,22.61-24.73-9.38-24.73-22.61ZM688.21,153.95c0-6.08-4.2-10.28-9.89-10.28s-9.99,4.29-9.99,10.28,4.2,10.28,9.99,10.28,9.89-4.29,9.89-10.28Z"/>
      <path d="M708.64,132.06h14.56v4.65h.19c3.27-3.57,7.84-5.45,12.97-5.45,11.85,0,20.81,9.29,20.81,22.7s-8.96,22.61-21.56,22.61c-5.23,0-9.24-1.79-12.23-5.09l-.19.09v21.89h-14.56v-61.38ZM742.43,153.95c0-6.25-4.2-10.36-9.8-10.36-5.88,0-10.08,4.38-10.08,10.36s4.39,10.28,10.17,10.28,9.71-4.11,9.71-10.28Z"/>
    </g>
    <g>
      <path class="cls-5" d="M723.2,173.4c-.54-3.78-4.14-4.17-7.29-3.74-1.97.27-3.89.88-5.71,1.67l1.6-2.27c1.95-2.91,8.3-12.3.45-11.82-5.03.31-9.23,4.84-11.72,8.83-.5.8-.89,1.7-1.37,2.47-.04.06-.06.15-.15.16-.18-.77-.35-1.55-.56-2.31-1.12-4.02-3.98-12.19-9.56-8.45-4.02,2.69-2.49,7.28-.47,10.74,1.24,2.14,2.85,4.02,4.46,5.89-.12.02-.2-.04-.29-.08-.83-.33-1.83-1.01-2.69-1.42-3.81-1.8-10.66-4.31-14.24-1-3.75,3.48,1.58,5.47,4.37,6.29,2.3.68,4.68,1.06,7.04,1.46l6.36.75c-2.39.22-4.78.61-7.08,1.32-3.93,1.21-8.65,3.8-6.55,8.71,1.7,3.97,7.03,2.09,9.94.75,2.33-1.07,4.52-2.44,6.62-3.9-.38,1.01-.93,1.96-1.35,2.97-1.32,3.15-3.46,9.67,1.09,11.17,1.22.4,3.05.41,4.28.06,4.36-1.21,5.03-6.52,4.91-10.36-.03,0,0-.75,0-.76l-.2-3.62h0c1.21,2,4.29,7.92,5.8,9.13,2.45,1.96,3.97,2.4,7.11.76,2.82-1.47-1.96-8.93-2.67-9.88-.06-.18-.24-.4-.37-.54-.44-.5-1.08-1.07-1.58-1.52-1.08-.95-2.25-1.79-3.44-2.59,1.04-.12,2.08-.24,3.11-.43,4.26-.77,10.95-2.88,10.16-8.43ZM702.82,182.53c-1.44.05-3.84-1.24-4.01-2.8-.27-2.36.84-5.33,3.49-5.61,5-.53,5.42,8.25.52,8.41Z"/>
      <path class="cls-1" d="M702.3,174.12c5-.53,5.42,8.25.52,8.41-1.44.05-3.84-1.24-4.01-2.8-.27-2.36.84-5.33,3.49-5.61Z"/>
    </g>
    <g>
      <path class="cls-3" d="M699.04,132.51c-.56.65-.07,3.66,1.56,5.97,1.97,2.78,5.27,4.85,6.08,4.43,1.02-.52-.43-5.54-3.49-8.72-.88-.91-3.6-2.33-4.15-1.69Z"/>
      <path class="cls-3" d="M707.94,143.4c.3.8,3.19,1.8,6,1.46,3.38-.41,6.77-2.33,6.79-3.25.02-1.14-5.08-2.25-9.33-1.07-1.22.34-3.76,2.06-3.46,2.85Z"/>
      <path class="cls-3" d="M713.61,125.06c-1.07-.08-3.71,2.65-4.81,6-1.32,4.04-.93,8.87.09,9.37,1.28.63,5.22-4.56,6.12-9.97.26-1.56-.35-5.33-1.4-5.41Z"/>
    </g>
  </g>
</svg>