<?xml version="1.0" encoding="UTF-8"?>
<svg id="Layer_1" data-name="Layer 1" xmlns="http://www.w3.org/2000/svg" viewBox="0 0 269.22 271.96">
  <defs>
    <style>
      .cls-1 {
        fill: #ff2b4c;
      }
    </style>
  </defs>
  <path class="cls-1" d="M102.61,0H19.61C8.78,0,0,8.78,0,19.61v84.18h102.61V0Z"/>
  <path class="cls-1" d="M83.96,159.3c-4.48,2.61-9.19,3.92-13.59,3.92-4.41,0-8.5-1.31-11.7-3.93-6.06-4.96-7.64-13.4-4.31-23.18,3.51-10.31,18.23-17.77,32.37-23.81H0v140.06c0,10.83,8.78,19.61,19.61,19.61h83.01v-138.84c-5.45,11.43-12.04,22.32-18.66,26.18Z"/>
  <path class="cls-1" d="M150.91,65.26c-.86-2.91-3.8-5.62-7.49-6.9-1.15-.4-2.79-.8-4.74-.8-2.51,0-5.52.67-8.63,2.86-7.36,5.2-12.56,23.82-14.78,31.77-.58,2.07-.97,3.49-1.32,4.52.23-.08.46-.17.7-.25,30.43-10.64,38.55-23.46,36.27-31.2Z"/>
  <path class="cls-1" d="M161.64,120.95l-1.11,8.43c-15.96-2.11-31.65-9.55-41.15-14.8,6.53,11.39,19.14,36.56,15.76,55.99l-8.38-1.46c3.04-17.48-10-42.14-15.65-51.79v154.63h138.49c10.83,0,19.61-8.78,19.61-19.61V112.29h-135.46c8.15,3.73,18.07,7.36,27.88,8.66Z"/>
  <path class="cls-1" d="M125.14,53.48c6.31-4.46,13.99-5.61,21.07-3.15,6.29,2.18,11.22,6.99,12.86,12.53,1.68,5.67,3.67,25.19-39.65,40.93h149.8V19.61c0-10.83-8.78-19.61-19.61-19.61H111.12v76.67c3.16-9.04,7.65-18.68,14.02-23.19Z"/>
  <path class="cls-1" d="M97.73,116.91c-12.91,5.32-32.41,13.35-35.33,21.93-2.15,6.31-1.56,11.23,1.64,13.85,3.57,2.92,9.85,2.62,15.63-.75,6.56-3.83,14.9-20.51,21.28-36.37-1.04.43-2.12.88-3.21,1.33Z"/>
</svg>