<?xml version="1.0" encoding="UTF-8"?>
<svg id="Layer_1" data-name="Layer 1" xmlns="http://www.w3.org/2000/svg" viewBox="0 0 455.41 117.53">
  <defs>
    <style>
      .cls-1 {
        fill: #1c1c1c;
      }

      .cls-2 {
        fill: #db5461;
      }
    </style>
  </defs>
  <g>
    <path class="cls-1" d="M202.71,30.91v43.4c0,.75-.61,1.35-1.35,1.35h-10.11c-.75,0-1.35-.61-1.35-1.35v-15.98c0-1.33-1.71-1.86-2.47-.78l-4.64,6.65c-.25.36-.67.58-1.11.58h-6.87c-.44,0-.86-.22-1.11-.58l-4.64-6.69c-.76-1.09-2.47-.56-2.47.77v16.03c0,.75-.61,1.35-1.35,1.35h-10.12c-.75,0-1.35-.61-1.35-1.35V30.91c0-.75.61-1.35,1.35-1.35h7.32c.45,0,.87.22,1.12.59l13.6,19.91c.54.79,1.7.79,2.24,0l13.54-19.9c.25-.37.67-.59,1.12-.59h7.32c.75,0,1.35.61,1.35,1.35Z"/>
    <path class="cls-1" d="M245.49,36.46c-1.41-2.23-3.31-3.93-5.7-5.12-2.4-1.19-5.09-1.78-8.06-1.78h-20.03c-.75,0-1.35.61-1.35,1.35v43.4c0,.75.61,1.35,1.35,1.35h10.25c.75,0,1.35-.61,1.35-1.35v-13.48c0-.75.61-1.35,1.35-1.35h7.07c2.97,0,5.66-.6,8.06-1.78,2.39-1.19,4.29-2.91,5.7-5.15,1.4-2.25,2.1-4.92,2.1-8.03s-.7-5.84-2.1-8.06ZM233.99,47.66c-.52.84-1.2,1.47-2.04,1.88-.84.41-1.76.61-2.75.61h-4.53c-.75,0-1.35-.61-1.35-1.35v-8.56c0-.75.61-1.35,1.35-1.35h4.53c.99,0,1.91.21,2.75.62.84.41,1.52,1.04,2.04,1.88.52.84.78,1.89.78,3.14s-.26,2.3-.78,3.14Z"/>
    <path class="cls-1" d="M287.32,36.46c-1.4-2.23-3.3-3.93-5.7-5.12-2.39-1.19-5.08-1.78-8.06-1.78h-20.02c-.75,0-1.35.61-1.35,1.35v43.4c0,.75.61,1.35,1.35,1.35h10.24c.75,0,1.35-.61,1.35-1.35v-13.48c0-.75.61-1.35,1.35-1.35h7.07c2.98,0,5.67-.6,8.06-1.78,2.4-1.19,4.3-2.91,5.7-5.15,1.41-2.25,2.11-4.92,2.11-8.03s-.7-5.84-2.11-8.06ZM275.83,47.66c-.52.84-1.2,1.47-2.04,1.88-.84.41-1.76.61-2.76.61h-4.54c-.75,0-1.35-.61-1.35-1.35v-8.56c0-.75.61-1.35,1.35-1.35h4.54c1,0,1.92.21,2.76.62.84.41,1.52,1.04,2.04,1.88.52.84.78,1.89.78,3.14s-.26,2.3-.78,3.14Z"/>
    <path class="cls-1" d="M319.8,76.44c-3.93,0-7.35-.57-10.26-1.72-2.51-.99-4.85-2.48-7.03-4.47-.58-.53-.61-1.42-.06-1.98l6.21-6.21c.49-.49,1.29-.54,1.81-.09,1.41,1.2,2.88,2.15,4.4,2.84,1.86.84,3.84,1.26,5.96,1.26,1.77,0,3.11-.27,4.01-.81.91-.54,1.36-1.28,1.36-2.23s-.39-1.74-1.17-2.36c-.78-.63-1.8-1.19-3.08-1.68-1.27-.5-2.68-1-4.21-1.52-1.53-.52-3.06-1.14-4.57-1.88-1.51-.73-2.9-1.63-4.18-2.69-1.27-1.06-2.3-2.37-3.08-3.95-.78-1.58-1.17-3.51-1.17-5.8,0-2.98.71-5.55,2.14-7.71,1.42-2.16,3.43-3.81,6.02-4.95,2.59-1.14,5.63-1.72,9.13-1.72s6.66.55,9.62,1.65c2.45.91,4.55,2.14,6.3,3.69.59.52.62,1.43.06,1.99l-6.26,6.21c-.5.49-1.3.53-1.83.07-1.12-.97-2.24-1.71-3.36-2.24-1.42-.67-2.98-1-4.66-1-1.34,0-2.41.22-3.21.65-.8.43-1.2,1.08-1.2,1.94,0,.91.39,1.65,1.17,2.23.78.58,1.8,1.11,3.08,1.59,1.27.48,2.68.97,4.21,1.49,1.53.52,3.05,1.13,4.57,1.85,1.51.71,2.9,1.62,4.18,2.72,1.27,1.1,2.3,2.47,3.08,4.11.78,1.64,1.17,3.63,1.17,5.96,0,4.71-1.67,8.34-5.02,10.91-3.35,2.57-8.06,3.85-14.15,3.85Z"/>
    <path class="cls-1" d="M376.53,54.88v19.44c0,.75-.61,1.35-1.35,1.35h-9.98c-.75,0-1.35-.61-1.35-1.35v-16.53c0-1.25-.36-2.21-1.07-2.88-.71-.67-1.61-1-2.69-1-.73,0-1.39.15-1.97.45-.59.3-1.04.75-1.36,1.33-.33.58-.49,1.28-.49,2.1v16.53c0,.75-.61,1.35-1.35,1.35h-9.98c-.75,0-1.35-.61-1.35-1.35V29.61c0-.75.61-1.35,1.35-1.35h9.98c.75,0,1.35.61,1.35,1.35v15.69c.34-.24.7-.45,1.07-.65,1.88-.99,4.07-1.49,6.57-1.49s4.84.51,6.74,1.52c1.9,1.02,3.35,2.4,4.37,4.15,1.01,1.74,1.52,3.76,1.52,6.05Z"/>
    <path class="cls-1" d="M398.04,76.44c-3.5,0-6.62-.72-9.36-2.17-2.74-1.45-4.9-3.44-6.48-5.99-1.58-2.55-2.36-5.42-2.36-8.61s.78-6.04,2.33-8.55,3.7-4.48,6.44-5.93c2.74-1.45,5.86-2.17,9.36-2.17s6.61.72,9.33,2.17c2.72,1.45,4.87,3.42,6.44,5.93,1.58,2.5,2.36,5.35,2.36,8.55s-.78,6.07-2.33,8.61c-1.55,2.55-3.69,4.54-6.41,5.99s-5.83,2.17-9.33,2.17ZM397.97,65.31c1.08,0,2.02-.23,2.82-.68.8-.45,1.41-1.1,1.85-1.94.43-.84.65-1.82.65-2.95s-.23-2.1-.68-2.95c-.45-.84-1.07-1.49-1.85-1.94-.78-.45-1.71-.68-2.79-.68s-1.95.24-2.75.71c-.8.48-1.42,1.13-1.88,1.98-.45.84-.68,1.82-.68,2.95s.23,2.04.68,2.88c.45.84,1.08,1.49,1.88,1.94.8.45,1.72.68,2.75.68Z"/>
    <path class="cls-1" d="M453.44,51.12c-1.32-2.5-3.16-4.45-5.51-5.86-2.35-1.4-5.11-2.1-8.26-2.1-1.9,0-3.69.37-5.37,1.1-.55.24-1.07.5-1.56.8v-1.25h-11.34c-.75,0-1.35.61-1.35,1.35v42.75c0,.75.61,1.35,1.35,1.35h9.66c.75,0,1.35-.61,1.35-1.35v-11.29c0-.96.96-1.59,1.86-1.26,0,0,.01,0,.02,0,1.68.62,3.47.94,5.37.94,3.15,0,5.91-.72,8.26-2.14,2.35-1.43,4.19-3.38,5.51-5.86,1.31-2.48,1.97-5.34,1.97-8.58s-.66-6.11-1.97-8.62ZM441.97,62.52c-.45.82-1.09,1.47-1.91,1.94-.82.48-1.75.72-2.78.72s-1.96-.24-2.75-.72c-.8-.47-1.42-1.12-1.85-1.94-.43-.82-.65-1.75-.65-2.78s.23-2.03.68-2.85c.46-.82,1.08-1.46,1.88-1.91.8-.46,1.72-.68,2.75-.68s1.96.24,2.76.71c.79.48,1.42,1.11,1.87,1.91.46.8.68,1.74.68,2.82s-.22,1.96-.68,2.78Z"/>
  </g>
  <path class="cls-2" d="M60.93,31.34l-1.7-1.7c-1.94-1.93-5-1.06-6.1,1.36l-3.81,8.38v.02s1.84,1.85,1.84,1.85l8.41-3.82c2.42-1.1,3.29-4.16,1.35-6.09ZM60.93,31.34l-1.7-1.7c-1.94-1.93-5-1.06-6.1,1.36l-3.81,8.38v.02s1.84,1.85,1.84,1.85l8.41-3.82c2.42-1.1,3.29-4.16,1.35-6.09ZM8.44,0C3.78,0,0,3.78,0,8.44v35.81h39.03c0-.9.33-1.8,1.02-2.48l2.04-2.05c.6-.6,1.38-.93,2.16-.99V0H8.44ZM109.09,0h-59.77v30.92l1.66-3.66c2.1-4.62,7.97-6.28,11.65-2.6l3.26,3.26c3.69,3.69,2.03,9.55-2.6,11.65l-7.1,3.23c2.02.19,4.36.59,6.88,1.35.1.03.18.06.28.09h54.17V8.44c0-4.66-3.78-8.44-8.44-8.44ZM73.53,49.31c.31.22.6.43.86.64-.1,3.33-.18,6.67-.28,10.01-3.83-2.38-8.19-4.82-13.09-7.16-2.74-1.31-5.4-2.47-7.95-3.49h-3.07l-.46.46c3.99,8.8,7.97,17.59,11.96,26.38-3.98-.46-7.96-.93-11.93-1.4-.08-.1-.16-.2-.26-.32v43.09h59.77c4.66,0,8.44-3.78,8.44-8.44v-59.77h-44ZM43.15,55.85l-3.24,7.13c-2.1,4.62-7.97,6.28-11.65,2.59l-3.26-3.25c-3.69-3.69-2.03-9.55,2.6-11.65l2.96-1.35H0v59.77c0,4.66,3.78,8.44,8.44,8.44h35.81v-52.52c-.85-2.69-1.37-5.78-1.1-9.16ZM39.77,49.31h-.59l-8,3.64c-2.42,1.1-3.29,4.16-1.36,6.1l1.7,1.7c1.93,1.94,5,1.07,6.09-1.35l3.82-8.41-1.67-1.67ZM60.93,31.34l-1.7-1.7c-1.94-1.93-5-1.06-6.1,1.36l-3.81,8.38v.02s1.84,1.85,1.84,1.85l8.41-3.82c2.42-1.1,3.29-4.16,1.35-6.09ZM60.93,31.34l-1.7-1.7c-1.94-1.93-5-1.06-6.1,1.36l-3.81,8.38v.02s1.84,1.85,1.84,1.85l8.41-3.82c2.42-1.1,3.29-4.16,1.35-6.09Z"/>
</svg>