<?xml version="1.0" encoding="UTF-8"?>
<svg id="Layer_1" xmlns="http://www.w3.org/2000/svg" version="1.1" xmlns:xlink="http://www.w3.org/1999/xlink" viewBox="0 0 629.9 161.8">
  <!-- Generator: Adobe Illustrator 29.0.1, SVG Export Plug-In . SVG Version: 2.1.0 Build 192)  -->
  <defs>
    <style>
      .st0 {
        fill: #fff;
      }

      .st1 {
        fill: none;
      }

      .st2 {
        fill: #231f20;
      }

      .st3 {
        fill: #ff718c;
      }

      .st4 {
        fill: #d0cfdb;
      }

      .st5 {
        fill: #ef405b;
      }

      .st6 {
        clip-path: url(#clippath);
      }
    </style>
    <clipPath id="clippath">
      <rect class="st1" x="0" width="159.5" height="161.3" rx="11.7" ry="11.7"/>
    </clipPath>
  </defs>
  <g>
    <path class="st5" d="M60.8.5H11.6C5.2.5,0,5.7,0,12.2v49.9h60.8V.5h0Z"/>
    <path class="st5" d="M49.8,95c-2.6,1.6-5.4,2.3-8.1,2.3s-5-.8-6.9-2.3c-3.6-2.9-4.5-7.9-2.6-13.7,2.1-6.1,10.8-10.5,19.2-14.1H0v83c0,6.4,5.2,11.6,11.6,11.6h49.2v-82.3c-3.2,6.8-7.1,13.2-11.1,15.5h0Z"/>
    <path class="st5" d="M89.5,39.2c-.5-1.7-2.2-3.3-4.4-4.1-.7-.2-1.6-.5-2.8-.5s-3.3.4-5.1,1.7c-4.4,3.1-7.4,14.1-8.8,18.8-.3,1.2-.6,2.1-.8,2.7.1,0,.3,0,.4-.2,18-6.3,22.9-13.9,21.5-18.5h0Z"/>
    <path class="st5" d="M95.8,72.2l-.7,5c-9.5-1.2-18.8-5.7-24.4-8.8,3.9,6.8,11.4,21.7,9.3,33.2l-5-.9c1.8-10.4-5.9-25-9.3-30.7v91.7h82.1c6.4,0,11.6-5.2,11.6-11.6v-83h-80.3c4.8,2.2,10.7,4.4,16.5,5.1h0Z"/>
    <path class="st5" d="M74.2,32.2c3.7-2.6,8.3-3.3,12.5-1.9,3.7,1.3,6.6,4.1,7.6,7.4,1,3.4,2.2,14.9-23.5,24.3h88.8V12.2c0-6.4-5.2-11.6-11.6-11.6h-82.1v45.4c1.9-5.4,4.5-11.1,8.3-13.7Z"/>
    <path class="st5" d="M57.9,69.8c-7.6,3.1-19.2,7.9-20.9,13-1.3,3.7-.9,6.7,1,8.2,2.1,1.7,5.8,1.6,9.3-.4,3.9-2.3,8.8-12.2,12.6-21.6-.6.3-1.3.5-1.9.8h0Z"/>
  </g>
  <g>
    <path class="st2" d="M228.3,48.6h15.6l18.3,33.6h.2l18.1-33.6h15.7v63.2h-15.5v-34.8h-.2l-13.4,23.2h-10l-13.4-23.2h-.3v34.9h-15.4v-63.2h0Z"/>
    <path class="st2" d="M306.3,48.6h25.1c16.3,0,23.5,9.2,23.5,21.8s-9.8,21-24.8,21h-8.8v20.4h-15.2v-63.2h0ZM328.5,78.4c6.9,0,10.4-3.1,10.4-8.4s-3.2-8.4-10.1-8.4h-7.3v16.7h7Z"/>
    <path class="st2" d="M361.4,48.6h25.1c16.3,0,23.5,9.2,23.5,21.8s-9.8,21-24.8,21h-8.8v20.4h-15.2v-63.2h0ZM383.6,78.4c6.9,0,10.4-3.1,10.4-8.4s-3.2-8.4-10.1-8.4h-7.3v16.7h7Z"/>
    <path class="st2" d="M422.2,102.6l9.1-10.6c5,5.3,11.1,7.5,15.6,7.5s7.4-2.5,7.4-5.3-2.3-5-9.8-7.4c-10-3.3-20.1-7.8-20.1-20.3s9.4-18.4,21.7-18.6c8.7-.2,16.6,3,22.9,8.2l-8.8,10.9c-5.7-4.3-9.8-6-13.5-6s-6.1,1.9-6.1,4.9c0,3,2.3,4.6,9.5,7.3,11.6,4.3,20.6,7.1,20.6,19.3s-13.3,20.2-24.3,20.2-17.2-3.1-24.3-10.1h0Z"/>
    <path class="st2" d="M476.3,46.3h14.5v26.9h.2c3.5-3.7,8.5-5.7,14-5.7,9.4,0,16.4,4.4,16.4,18.1v26.3h-14.5v-22.8c0-7-2.5-9.2-7.6-9.2s-8.5,3.2-8.5,10v22h-14.5s0-65.6,0-65.6Z"/>
    <path class="st2" d="M526.6,90.1c0-13.3,10-22.6,24.7-22.6s24.6,9.2,24.6,22.6-10.2,22.5-24.6,22.5-24.7-9.4-24.7-22.5ZM561.1,90.1c0-6.1-4.2-10.2-9.9-10.2s-10,4.3-10,10.2,4.2,10.2,10,10.2,9.9-4.3,9.9-10.2Z"/>
    <path class="st2" d="M581.5,68.3h14.5v4.6h.2c3.3-3.6,7.8-5.4,12.9-5.4,11.8,0,20.8,9.3,20.8,22.6s-8.9,22.5-21.5,22.5-9.2-1.8-12.2-5.1h-.2v21.9h-14.5v-61.2h0ZM615.2,90.1c0-6.2-4.2-10.3-9.8-10.3s-10,4.4-10,10.3,4.4,10.2,10.1,10.2,9.7-4.1,9.7-10.2Z"/>
  </g>
  <g class="st6">
    <g>
      <g>
        <path class="st3" d="M174,142h-4.6l3.1-3.3c.3-.3.4-.6.4-1,0-.4-.2-.7-.5-1l-.3-.3c-.3-.3-.6-.4-1-.4-.4,0-.7.2-1,.5l-5.1,5.5h-5.5l6.5-7.1c.3-.3.4-.6.4-1,0-.4-.2-.7-.5-1l-.3-.3c-.3-.2-.6-.4-1-.4-.4,0-.7.2-1,.5l-8.6,9.3h-18.6l13.1-13.1h.2s12.4.5,12.4.5c.4,0,.7,0,1-.4.3-.3.4-.6.5-1v-.4c0-.4,0-.7-.4-1-.3-.3-.6-.4-1-.5l-9.7-.4,3.9-3.9h.2s7.3.3,7.3.3c.4,0,.7-.1,1-.4.3-.3.4-.6.5-1v-.4c0-.4,0-.7-.4-1-.3-.3-.6-.4-1-.5l-4.5-.2,3.2-3.2c.3-.3.4-.6.4-1s-.1-.7-.4-1l-.3-.3c-.3-.3-.6-.4-1-.4h0c-.4,0-.7.1-1,.4l-3,3-.2-4.1c0-.4-.2-.7-.5-1-.3-.3-.6-.4-1-.4h-.4c-.4,0-.7.2-1,.5-.3.3-.4.6-.4,1l.3,7-3.9,3.9-.4-9.2c0-.4-.2-.7-.5-1-.3-.3-.7-.4-1-.4h-.4c-.4,0-.7.2-1,.5-.3.3-.4.6-.4,1l.5,12.2-.2.2-12.6,12.6v-18.1l9-8.2c.3-.3.4-.6.5-1,0-.4-.1-.7-.4-1l-.3-.3c-.3-.3-.6-.4-1-.5-.4,0-.7.1-1,.4l-6.8,6.2v-5.5l5.2-4.8c.3-.3.4-.6.5-1,0-.4-.1-.7-.4-1l-.3-.3c-.5-.6-1.4-.6-2,0l-3,2.8v-4.3c0-.8-.6-1.4-1.4-1.4h-.4c-.8,0-1.4.6-1.4,1.4v4.6l-3.3-3.1c-.3-.3-.6-.4-1-.4-.4,0-.7.2-1,.5l-.3.3c-.5.6-.5,1.5,0,2l5.5,5.1v5.5l-7.1-6.5c-.3-.3-.6-.4-1-.4-.4,0-.7.2-1,.5l-.3.3c-.3.3-.4.6-.4,1,0,.4.2.7.5,1l9.3,8.6v18.1l-13.1-13.1.5-12.2c0-.4-.1-.7-.4-1-.3-.3-.6-.4-1-.5h-.4c-.4,0-.7,0-1,.4-.3.3-.4.6-.5,1l-.4,9.2-3.9-3.9.3-7c0-.4-.1-.7-.4-1-.3-.3-.6-.4-1-.5h-.4c-.4,0-.7.1-1,.4-.3.3-.4.6-.5,1l-.2,4.1-3-3c-.3-.3-.6-.4-1-.4h0c-.4,0-.7.1-1,.4l-.3.3c-.3.3-.4.6-.4,1s.1.7.4,1l3.2,3.2-4.5.2c-.4,0-.7.2-1,.5-.3.3-.4.6-.4,1v.4c0,.4.2.7.5,1,.3.3.6.4,1,.4l7.5-.3,3.9,3.9-9.7.4c-.4,0-.7.2-1,.5-.3.3-.4.6-.4,1v.4c0,.8.7,1.3,1.4,1.3l12.7-.5.2.2,13,13h-18.6l-.2-.2-8.4-9.1c-.3-.3-.6-.4-1-.5-.4,0-.7.1-1,.4l-.3.3c-.3.3-.4.6-.5,1,0,.4.1.7.4,1l6.5,7.1h-5.5l-.2-.2-4.9-5.3c-.5-.6-1.4-.6-2,0l-.3.3c-.6.5-.6,1.4,0,2l3.1,3.3h-4.6c-.8,0-1.4.6-1.4,1.4v.4c0,.8.6,1.4,1.4,1.4h4.3l-2.8,3c-.5.6-.5,1.5,0,2l.3.3c.6.5,1.5.5,2,0l4.8-5.2h5.5l-6.2,6.8c-.3.3-.4.6-.4,1,0,.4.2.7.5,1l.3.3c.3.3.7.4,1,.4.4,0,.7-.2,1-.5l8.3-9h18.1l-12.8,12.8h-.2s-11.9-.5-11.9-.5h0c-.8,0-1.4.6-1.5,1.3v.4c0,.4,0,.7.4,1,.3.3.6.4,1,.5l9.2.4-3.9,3.9h-.2s-6.8-.3-6.8-.3c-.4,0-.7.1-1,.4-.3.3-.4.6-.5,1v.4c0,.4,0,.7.4,1,.3.3.6.4,1,.5l4.1.2-3,3c-.3.3-.4.6-.4,1s.1.7.4,1l.3.3c.5.5,1.4.5,2,0l3.2-3.2.2,4.5c0,.4.2.7.5,1,.3.3.6.4,1,.4h.4c.4,0,.7-.2,1-.5.3-.3.4-.6.4-1l-.3-7.5,3.9-3.9.4,9.7c0,.8.6,1.3,1.4,1.3h.5c.4,0,.7-.2,1-.5.3-.3.4-.6.4-1l-.5-12.6.2-.2,13-13v18.6l-9.3,8.6c-.6.5-.6,1.4,0,2l.3.3c.3.3.6.4,1,.5.4,0,.7-.1,1-.4l7.1-6.5v5.5l-5.5,5.1c-.3.3-.4.6-.5,1,0,.4.1.7.4,1l.3.3c.3.3.6.4,1,.5.4,0,.7,0,1-.4l3.3-3.1v4.6c0,.8.6,1.4,1.4,1.4h.4c.8,0,1.4-.6,1.4-1.4v-4.3l3,2.8c.3.3.7.4,1,.4.4,0,.7-.2,1-.5l.3-.3c.3-.3.4-.6.4-1,0-.4-.2-.7-.5-1l-5.2-4.8v-5.5l6.8,6.2c.3.2.6.4,1,.4.4,0,.7-.2,1-.5l.3-.3c.3-.3.4-.6.4-1,0-.4-.2-.7-.5-1l-9-8.3v-18.6l12.8,12.8-.5,12.6c0,.4.1.7.4,1,.3.3.6.4,1,.5h.4c.8,0,1.4-.6,1.5-1.3l.4-9.7,3.9,3.9-.3,7.5c0,.4.1.7.4,1,.3.3.6.4,1,.5h.4c.4,0,.7,0,1-.4.3-.3.4-.6.5-1l.2-4.5,3.2,3.2c.5.5,1.4.5,2,0l.3-.3c.3-.3.4-.6.4-1s-.1-.7-.4-1l-3-3,4.1-.2c.4,0,.7-.2,1-.5.3-.3.4-.6.4-1v-.4c0-.4-.2-.7-.5-1-.3-.3-.6-.4-1-.4l-7.1.3-3.9-3.9,9.2-.4c.4,0,.7-.2,1-.5.3-.3.4-.6.4-1v-.4c0-.8-.7-1.3-1.4-1.3l-12.2.5-.2-.2-12.6-12.6h18.1l.2.2,8.1,8.8c.3.3.6.4,1,.5.4,0,.7-.1,1-.4l.3-.3c.3-.3.4-.6.5-1,0-.4-.1-.7-.4-1l-6.2-6.8h5.5l.2.2,4.6,5c.3.3.6.4,1,.5.4,0,.7-.1,1-.4l.3-.3c.3-.3.4-.6.5-1,0-.4-.1-.7-.4-1l-2.8-3h4.3c.8,0,1.4-.6,1.4-1.4v-.4c0-.8-.6-1.4-1.4-1.4Z"/>
        <path class="st3" d="M168.6,36.2l-9.4-.3-6.4-6.9,11.9-2.5-8.8-4,7.6-1.8,8.4,5.3,1.1-1.8-6.6-4.1,8-1.8-.5-2.1-7.6,1.8,3.8-6.1-1.8-1.1-5,7.9-8.2,1.9,5.3-8.5-10.9,4.4,2.8-9,8.8-4.7-1-1.9-6.9,3.7,2.4-7.8-2-.6-2.3,7.5-3.4-6.4-1.9,1,4.4,8.3-2.9,9.6-3.3-10.4-3.5,10.5-5.5-5.9.4-9.9h-2.1c0,0-.3,7.7-.3,7.7l-5.6-6-1.6,1.5,5.3,5.7-7.2-.3v2.1c0,0,9.3.3,9.3.3l6.3,6.8-11.5-.4,8.9,6.9-8,1.9-8.4-5.3-1.1,1.8,6.6,4.1-8,1.8.5,2.1,7.6-1.8-3.8,6.1,1.8,1.1,5-7.9,9.3-2.2-5.5,10.5,9.4-4.7-2.3,7.6-8.8,4.7,1,1.9,6.9-3.7-2.4,7.8,2,.6,2.3-7.5,3.4,6.4,1.9-1-4.4-8.3,2.7-8.9,7.3,9.6-.2-10.3,5.4,5.8-.4,9.9h2.1c0,0,.3-7.7.3-7.7l5.6,6,1.6-1.5-5.3-5.7,7.2.3v-2.1ZM157.1,25.7l-5.8,1.8-3-3.2,3.7-.9,5,2.3ZM154.7,16.9l-2.1,4.2-4.7,1.1.9-2.9,5.9-2.4ZM144.2,13.2l2.4,5.7-.8,2.6-3.3-3.5,1.6-4.9ZM135.4,20.3l6-.4,2.9,3.1-4.2,1-4.7-3.7ZM138.6,31.7l2.3-5.7,3.9-.9-1.3,4.1-4.9,2.5ZM149.7,34.4l-4.1-4.5,1.3-4.2,2.7,2.9v5.7Z"/>
        <path class="st3" d="M38.8,137.1l-9,2.5-8.3-4.6,10.6-6-9.6-1.1,6.7-4,9.6,2.4.5-2.1-7.5-1.9,7-4.2-1.1-1.8-6.7,4,1.8-7-2.1-.5-2.3,9.1-7.2,4.3,2.5-9.7-9,7.5v-9.4c-.1,0,6.8-7.1,6.8-7.1l-1.5-1.5-5.4,5.6v-8.2c0,0-2.2,0-2.2,0v7.8c0,0-5.1-5.1-5.1-5.1l-1.5,1.5,6.7,6.5v10.1c.1,0-6.1-8.9-6.1-8.9l-.2,11.1-7-4-2.7-9.6-2.1.6,2.1,7.5-7.1-4-1,1.9,6.8,3.8-7,1.9.6,2.1,9-2.5,8.1,4.5-11,3.1,10.6,3.9-7.1,4.2-9.6-2.4-.5,2.1,7.5,1.9-7,4.2,1.1,1.8,6.7-4-1.8,7,2.1.5,2.3-9.1,8.2-4.9-2,11.7,7.6-7.3v8c0,0-6.8,7.1-6.8,7.1l1.5,1.5,5.4-5.6v8.2c0,0,2.2,0,2.2,0v-7.8c0,0,5.1,5.1,5.1,5.1l1.5-1.5-6.7-6.5v-9.4c-.1,0,9.7,6.9,9.7,6.9l-3.3-9.8,7,3.9,2.7,9.6,2.1-.6-2.1-7.5,7.1,4,1-1.9-6.8-3.8,7-1.9-.6-2.1ZM24.7,130.5l-5,3.5-3.8-2.2,3.3-2,5.5.6ZM19.7,122.8l-.7,4.7-4.2,2.5v-3.1s4.9-4.1,4.9-4.1ZM8.6,122.5l4.1,4.7v2.8s-4.1-2.4-4.1-2.4v-5.1ZM2.4,132l5.6-2.2,3.6,2.1-3.7,2.2-5.6-2.1ZM8.8,141.8l.5-6.1,3.5-2.1v4.3c0,0-3.9,3.8-3.9,3.8ZM20.2,141l-5.3-3v-4.4c0,0,3.4,2,3.4,2l1.8,5.4Z"/>
        <path class="st3" d="M56.4,10.2h-1.2l.8-.8c.3-.3.2-.7,0-1h-.1c-.3-.4-.7-.3-1,0l-1.7,1.9h-1.4l2-2.2c.3-.3.2-.7,0-1h-.1c-.3-.4-.7-.3-1,0l-3,3.2h-6l4.3-4.3,4.4.2c.4,0,.7-.3.7-.7v-.2c0-.4-.3-.7-.7-.7h-3c0-.1,1-1.1,1-1.1h2.6c.4.1.7-.2.7-.6v-.2c0-.4-.3-.7-.7-.7h-1.1s.8-.9.8-.9c.3-.3.3-.7,0-1h-.1c-.3-.4-.7-.4-1-.1l-.7.7V-.2c0-.4-.4-.7-.8-.7h-.2c-.4,0-.7.3-.7.7v2.4c.1,0-.9,1-.9,1V.4c-.1-.4-.5-.7-.8-.7h-.2c-.4,0-.7.3-.7.7l.2,4.2-4.1,4.1V3l3.1-2.9c.3-.3.3-.7,0-1h-.1c-.3-.4-.7-.4-1-.2l-2.1,1.9V-.5l1.8-1.6c.3-.3.3-.7,0-1h-.1c-.3-.4-.7-.4-1-.2l-.7.7v-1.1c0-.4-.3-.7-.7-.7h-.2c-.4,0-.7.3-.7.7v1.2l-.8-.8c-.3-.3-.7-.2-1,0h-.1c-.3.4-.2.8,0,1.1l1.9,1.7v1.4l-2.2-2c-.3-.3-.7-.2-1,0h-.1c-.3.4-.2.8,0,1.1l3.2,3v5.8l-4.2-4.2.2-4.2c0-.4-.3-.7-.7-.7h-.2c-.4,0-.7.3-.7.7v2.8c-.1,0-1.1-1-1.1-1V-.2c.1-.4-.2-.7-.6-.7h-.2c-.4,0-.7.3-.7.7v1S32.1,0,32.1,0c-.3-.3-.7-.3-1,0h-.1c-.3.4-.3.8,0,1.1l.8.8h-1.1c-.4,0-.7.4-.7.8v.2c0,.4.3.7.7.7h2.6c0-.1,1,.9,1,.9h-3c-.4.1-.7.5-.7.9v.2c0,.4.3.7.7.7l4.4-.2,4.3,4.3h-6l-3-3.2c-.3-.3-.7-.3-1,0h-.1c-.3.4-.3.8,0,1.1l2,2.2h-1.4l-1.7-1.9c-.3-.3-.7-.3-1,0h-.1c-.3.4-.3.8,0,1.1l.8.8h-1.2c-.4,0-.7.3-.7.7v.2c0,.4.3.7.7.7h1.1l-.7.7c-.3.3-.2.7,0,1h.1c.3.4.7.3,1,0l1.6-1.8h1.4l-1.9,2.1c-.3.3-.2.7,0,1h.1c.3.4.7.3,1,0l2.9-3.1h5.8l-4.1,4.1-4.2-.2c-.4,0-.7.3-.7.7v.2c0,.4.3.7.7.7h2.8c0,.1-1,1.1-1,1.1h-2.4c-.4-.1-.7.2-.7.6v.2c0,.4.3.7.7.7h1s-.7.8-.7.8c-.3.3-.3.7,0,1h.1c.3.4.7.4,1,.1l.8-.8v1.1c0,.4.4.7.8.7h.2c.4,0,.7-.3.7-.7v-2.6c-.1,0,.9-1,.9-1v3c.1.4.5.7.9.7h.2c.4,0,.7-.3.7-.7l-.2-4.4,4.3-4.3v6l-3.2,3c-.3.3-.3.7,0,1h.1c.3.4.7.4,1,.2l2.2-2v1.4l-1.9,1.7c-.3.3-.3.7,0,1h.1c.3.4.7.4,1,.2l.8-.8v1.2c0,.4.3.7.7.7h.2c.4,0,.7-.3.7-.7v-1.1l.7.7c.3.3.7.2,1,0h.1c.3-.4.2-.8,0-1.1l-1.8-1.6v-1.4l2.1,1.9c.3.3.7.2,1,0h.1c.3-.4.2-.8,0-1.1l-3.1-2.9v-6l4.1,4.1-.2,4.4c0,.4.3.7.7.7h.2c.4,0,.7-.3.7-.7v-3c.1,0,1.1,1,1.1,1v2.6c-.1.4.2.7.6.7h.2c.4,0,.7-.3.7-.7v-1.1s.9.8.9.8c.3.3.7.3,1,0h.1c.3-.4.3-.8,0-1.1l-.7-.7h1c.4,0,.7-.4.7-.8v-.2c0-.4-.3-.7-.7-.7h-2.4c0,.1-1-.9-1-.9h2.8c.4-.1.7-.5.7-.8v-.2c0-.4-.3-.7-.7-.7l-4.2.2-4.1-4.1h5.8l2.9,3.1c.3.3.7.3,1,0h.1c.3-.4.3-.8,0-1.1l-1.9-2.1h1.4l1.6,1.8c.3.3.7.3,1,0h.1c.3-.4.3-.8,0-1.1l-.7-.7h1.1c.4,0,.7-.3.7-.7v-.2c0-.4-.3-.7-.7-.7Z"/>
      </g>
      <g>
        <path class="st3" d="M174,142h-4.6l3.1-3.3c.3-.3.4-.6.4-1,0-.4-.2-.7-.5-1l-.3-.3c-.3-.3-.6-.4-1-.4-.4,0-.7.2-1,.5l-5.1,5.5h-5.5l6.5-7.1c.3-.3.4-.6.4-1,0-.4-.2-.7-.5-1l-.3-.3c-.3-.2-.6-.4-1-.4-.4,0-.7.2-1,.5l-8.6,9.3h-18.6l13.1-13.1h.2s12.4.5,12.4.5c.4,0,.7,0,1-.4.3-.3.4-.6.5-1v-.4c0-.4,0-.7-.4-1-.3-.3-.6-.4-1-.5l-9.7-.4,3.9-3.9h.2s7.3.3,7.3.3c.4,0,.7-.1,1-.4.3-.3.4-.6.5-1v-.4c0-.4,0-.7-.4-1-.3-.3-.6-.4-1-.5l-4.5-.2,3.2-3.2c.3-.3.4-.6.4-1s-.1-.7-.4-1l-.3-.3c-.3-.3-.6-.4-1-.4h0c-.4,0-.7.1-1,.4l-3,3-.2-4.1c0-.4-.2-.7-.5-1-.3-.3-.6-.4-1-.4h-.4c-.4,0-.7.2-1,.5-.3.3-.4.6-.4,1l.3,7-3.9,3.9-.4-9.2c0-.4-.2-.7-.5-1-.3-.3-.7-.4-1-.4h-.4c-.4,0-.7.2-1,.5-.3.3-.4.6-.4,1l.5,12.2-.2.2-12.6,12.6v-18.1l9-8.2c.3-.3.4-.6.5-1,0-.4-.1-.7-.4-1l-.3-.3c-.3-.3-.6-.4-1-.5-.4,0-.7.1-1,.4l-6.8,6.2v-5.5l5.2-4.8c.3-.3.4-.6.5-1,0-.4-.1-.7-.4-1l-.3-.3c-.5-.6-1.4-.6-2,0l-3,2.8v-4.3c0-.8-.6-1.4-1.4-1.4h-.4c-.8,0-1.4.6-1.4,1.4v4.6l-3.3-3.1c-.3-.3-.6-.4-1-.4-.4,0-.7.2-1,.5l-.3.3c-.5.6-.5,1.5,0,2l5.5,5.1v5.5l-7.1-6.5c-.3-.3-.6-.4-1-.4-.4,0-.7.2-1,.5l-.3.3c-.3.3-.4.6-.4,1,0,.4.2.7.5,1l9.3,8.6v18.1l-13.1-13.1.5-12.2c0-.4-.1-.7-.4-1-.3-.3-.6-.4-1-.5h-.4c-.4,0-.7,0-1,.4-.3.3-.4.6-.5,1l-.4,9.2-3.9-3.9.3-7c0-.4-.1-.7-.4-1-.3-.3-.6-.4-1-.5h-.4c-.4,0-.7.1-1,.4-.3.3-.4.6-.5,1l-.2,4.1-3-3c-.3-.3-.6-.4-1-.4h0c-.4,0-.7.1-1,.4l-.3.3c-.3.3-.4.6-.4,1s.1.7.4,1l3.2,3.2-4.5.2c-.4,0-.7.2-1,.5-.3.3-.4.6-.4,1v.4c0,.4.2.7.5,1,.3.3.6.4,1,.4l7.5-.3,3.9,3.9-9.7.4c-.4,0-.7.2-1,.5-.3.3-.4.6-.4,1v.4c0,.8.7,1.3,1.4,1.3l12.7-.5.2.2,13,13h-18.6l-.2-.2-8.4-9.1c-.3-.3-.6-.4-1-.5-.4,0-.7.1-1,.4l-.3.3c-.3.3-.4.6-.5,1,0,.4.1.7.4,1l6.5,7.1h-5.5l-.2-.2-4.9-5.3c-.5-.6-1.4-.6-2,0l-.3.3c-.6.5-.6,1.4,0,2l3.1,3.3h-4.6c-.8,0-1.4.6-1.4,1.4v.4c0,.8.6,1.4,1.4,1.4h4.3l-2.8,3c-.5.6-.5,1.5,0,2l.3.3c.6.5,1.5.5,2,0l4.8-5.2h5.5l-6.2,6.8c-.3.3-.4.6-.4,1,0,.4.2.7.5,1l.3.3c.3.3.7.4,1,.4.4,0,.7-.2,1-.5l8.3-9h18.1l-12.8,12.8h-.2s-11.9-.5-11.9-.5h0c-.8,0-1.4.6-1.5,1.3v.4c0,.4,0,.7.4,1,.3.3.6.4,1,.5l9.2.4-3.9,3.9h-.2s-6.8-.3-6.8-.3c-.4,0-.7.1-1,.4-.3.3-.4.6-.5,1v.4c0,.4,0,.7.4,1,.3.3.6.4,1,.5l4.1.2-3,3c-.3.3-.4.6-.4,1s.1.7.4,1l.3.3c.5.5,1.4.5,2,0l3.2-3.2.2,4.5c0,.4.2.7.5,1,.3.3.6.4,1,.4h.4c.4,0,.7-.2,1-.5.3-.3.4-.6.4-1l-.3-7.5,3.9-3.9.4,9.7c0,.8.6,1.3,1.4,1.3h.5c.4,0,.7-.2,1-.5.3-.3.4-.6.4-1l-.5-12.6.2-.2,13-13v18.6l-9.3,8.6c-.6.5-.6,1.4,0,2l.3.3c.3.3.6.4,1,.5.4,0,.7-.1,1-.4l7.1-6.5v5.5l-5.5,5.1c-.3.3-.4.6-.5,1,0,.4.1.7.4,1l.3.3c.3.3.6.4,1,.5.4,0,.7,0,1-.4l3.3-3.1v4.6c0,.8.6,1.4,1.4,1.4h.4c.8,0,1.4-.6,1.4-1.4v-4.3l3,2.8c.3.3.7.4,1,.4.4,0,.7-.2,1-.5l.3-.3c.3-.3.4-.6.4-1,0-.4-.2-.7-.5-1l-5.2-4.8v-5.5l6.8,6.2c.3.2.6.4,1,.4.4,0,.7-.2,1-.5l.3-.3c.3-.3.4-.6.4-1,0-.4-.2-.7-.5-1l-9-8.3v-18.6l12.8,12.8-.5,12.6c0,.4.1.7.4,1,.3.3.6.4,1,.5h.4c.8,0,1.4-.6,1.5-1.3l.4-9.7,3.9,3.9-.3,7.5c0,.4.1.7.4,1,.3.3.6.4,1,.5h.4c.4,0,.7,0,1-.4.3-.3.4-.6.5-1l.2-4.5,3.2,3.2c.5.5,1.4.5,2,0l.3-.3c.3-.3.4-.6.4-1s-.1-.7-.4-1l-3-3,4.1-.2c.4,0,.7-.2,1-.5.3-.3.4-.6.4-1v-.4c0-.4-.2-.7-.5-1-.3-.3-.6-.4-1-.4l-7.1.3-3.9-3.9,9.2-.4c.4,0,.7-.2,1-.5.3-.3.4-.6.4-1v-.4c0-.8-.7-1.3-1.4-1.3l-12.2.5-.2-.2-12.6-12.6h18.1l.2.2,8.1,8.8c.3.3.6.4,1,.5.4,0,.7-.1,1-.4l.3-.3c.3-.3.4-.6.5-1,0-.4-.1-.7-.4-1l-6.2-6.8h5.5l.2.2,4.6,5c.3.3.6.4,1,.5.4,0,.7-.1,1-.4l.3-.3c.3-.3.4-.6.5-1,0-.4-.1-.7-.4-1l-2.8-3h4.3c.8,0,1.4-.6,1.4-1.4v-.4c0-.8-.6-1.4-1.4-1.4Z"/>
        <path class="st3" d="M56.4,10.2h-1.2l.8-.8c.3-.3.2-.7,0-1h-.1c-.3-.4-.7-.3-1,0l-1.7,1.9h-1.4l2-2.2c.3-.3.2-.7,0-1h-.1c-.3-.4-.7-.3-1,0l-3,3.2h-6l4.3-4.3,4.4.2c.4,0,.7-.3.7-.7v-.2c0-.4-.3-.7-.7-.7h-3c0-.1,1-1.1,1-1.1h2.6c.4.1.7-.2.7-.6v-.2c0-.4-.3-.7-.7-.7h-1.1s.8-.9.8-.9c.3-.3.3-.7,0-1h-.1c-.3-.4-.7-.4-1-.1l-.7.7V-.2c0-.4-.4-.7-.8-.7h-.2c-.4,0-.7.3-.7.7v2.4c.1,0-.9,1-.9,1V.4c-.1-.4-.5-.7-.8-.7h-.2c-.4,0-.7.3-.7.7l.2,4.2-4.1,4.1V3l3.1-2.9c.3-.3.3-.7,0-1h-.1c-.3-.4-.7-.4-1-.2l-2.1,1.9V-.5l1.8-1.6c.3-.3.3-.7,0-1h-.1c-.3-.4-.7-.4-1-.2l-.7.7v-1.1c0-.4-.3-.7-.7-.7h-.2c-.4,0-.7.3-.7.7v1.2l-.8-.8c-.3-.3-.7-.2-1,0h-.1c-.3.4-.2.8,0,1.1l1.9,1.7v1.4l-2.2-2c-.3-.3-.7-.2-1,0h-.1c-.3.4-.2.8,0,1.1l3.2,3v5.8l-4.2-4.2.2-4.2c0-.4-.3-.7-.7-.7h-.2c-.4,0-.7.3-.7.7v2.8c-.1,0-1.1-1-1.1-1V-.2c.1-.4-.2-.7-.6-.7h-.2c-.4,0-.7.3-.7.7v1S32.1,0,32.1,0c-.3-.3-.7-.3-1,0h-.1c-.3.4-.3.8,0,1.1l.8.8h-1.1c-.4,0-.7.4-.7.8v.2c0,.4.3.7.7.7h2.6c0-.1,1,.9,1,.9h-3c-.4.1-.7.5-.7.9v.2c0,.4.3.7.7.7l4.4-.2,4.3,4.3h-6l-3-3.2c-.3-.3-.7-.3-1,0h-.1c-.3.4-.3.8,0,1.1l2,2.2h-1.4l-1.7-1.9c-.3-.3-.7-.3-1,0h-.1c-.3.4-.3.8,0,1.1l.8.8h-1.2c-.4,0-.7.3-.7.7v.2c0,.4.3.7.7.7h1.1l-.7.7c-.3.3-.2.7,0,1h.1c.3.4.7.3,1,0l1.6-1.8h1.4l-1.9,2.1c-.3.3-.2.7,0,1h.1c.3.4.7.3,1,0l2.9-3.1h5.8l-4.1,4.1-4.2-.2c-.4,0-.7.3-.7.7v.2c0,.4.3.7.7.7h2.8c0,.1-1,1.1-1,1.1h-2.4c-.4-.1-.7.2-.7.6v.2c0,.4.3.7.7.7h1s-.7.8-.7.8c-.3.3-.3.7,0,1h.1c.3.4.7.4,1,.1l.8-.8v1.1c0,.4.4.7.8.7h.2c.4,0,.7-.3.7-.7v-2.6c-.1,0,.9-1,.9-1v3c.1.4.5.7.9.7h.2c.4,0,.7-.3.7-.7l-.2-4.4,4.3-4.3v6l-3.2,3c-.3.3-.3.7,0,1h.1c.3.4.7.4,1,.2l2.2-2v1.4l-1.9,1.7c-.3.3-.3.7,0,1h.1c.3.4.7.4,1,.2l.8-.8v1.2c0,.4.3.7.7.7h.2c.4,0,.7-.3.7-.7v-1.1l.7.7c.3.3.7.2,1,0h.1c.3-.4.2-.8,0-1.1l-1.8-1.6v-1.4l2.1,1.9c.3.3.7.2,1,0h.1c.3-.4.2-.8,0-1.1l-3.1-2.9v-6l4.1,4.1-.2,4.4c0,.4.3.7.7.7h.2c.4,0,.7-.3.7-.7v-3c.1,0,1.1,1,1.1,1v2.6c-.1.4.2.7.6.7h.2c.4,0,.7-.3.7-.7v-1.1s.9.8.9.8c.3.3.7.3,1,0h.1c.3-.4.3-.8,0-1.1l-.7-.7h1c.4,0,.7-.4.7-.8v-.2c0-.4-.3-.7-.7-.7h-2.4c0,.1-1-.9-1-.9h2.8c.4-.1.7-.5.7-.8v-.2c0-.4-.3-.7-.7-.7l-4.2.2-4.1-4.1h5.8l2.9,3.1c.3.3.7.3,1,0h.1c.3-.4.3-.8,0-1.1l-1.9-2.1h1.4l1.6,1.8c.3.3.7.3,1,0h.1c.3-.4.3-.8,0-1.1l-.7-.7h1.1c.4,0,.7-.3.7-.7v-.2c0-.4-.3-.7-.7-.7Z"/>
      </g>
    </g>
  </g>
  <g>
    <path class="st5" d="M271.3,39.8c-3.1-1.8-6.5-1.5-9.8-.3s-1.6.9-2.2,1,.3-1.2-.2-1.5c-1.1.3-2.2.6-3.3.9s-2.4.6-3.6.7c-8.1.7-13.1-.7-20.7,3.7-1,.6-4.9,3.7-5.2,3.8s-.3,0-.3-.3c-.2-1.1.5-2.2,1.1-3-3.5.7-8.2,2.8-10,6.1s-.5,2.4-1.1,1.4-.3-1.4-.2-2,.4-.9.3-1.2c-1.5.9-2.5,2.3-3.7,3.6-2.1,2.3-4,4.6-4.2,8s.5,2.5.6,3.9c-.8,0-.8-.8-.9-1.2s0-.6-.4-.3-.5,1.5-.6,1.6c-.6,4,2.2,7.7,5.2,10.1s3.2,1.7,3.3,1.9c.5.8-1.6.8-1.1,1.3s2.9.6,3.6.6c.5,2.2,1.4,4.3,1.3,6.6-.1,0-.2,0-.2.2-.9-.2-3.7,1.2-4.3.9s-2.1-4.1-2.4-4.8c-5.2-9.6-9.9-17.5-7.3-29.1,2-9,7.7-26,13.5-33,11.7-14.2,23.9.8,33.9,8.1,3.5,2.5,7.2,4.8,11,6.7,3.1,1.6,6.4,2,7.9,5.8Z"/>
    <path class="st4" d="M271.3,39.8c.2,0,.3.4.5.5,2.2,1.4,4.1,3.3,6.8,3.6l-1.5.3c2.5,1.8,4.1,4.4,4,7.5s-.2,1.7-.3,2c-.2.4-.3,0-.4-.1-.2-.3-1.1-2.1-1.3-2.1-1.5,3.3-3.1,6.8-2,10.5l-1.7-2.1c-1,3.1-4.8,4.9-7.9,4.2.6-.2,2.1-2,1.5-2.4s-3.8-.4-4.6-.3-1.8.6-2.2,1-1,2.2-1.4,2.2c-1.1.1-2.4-.7-3.3-1.3s-.7-1-1.4-.8c-2.2,1.5-4.7,2.5-5.9,5s-.4,1.9-.7,2.3-.7-.4-.7-.5v-2.7c-3.2,2.2-8.1,1.1-10.5,4.7-.2-.4-.1-.9,0-1.3.2-.8.8-1.3,1-2.1-2.9.5-6.1,1.3-7.7,4.1s-.3,1.9-1.2.8-.6-1.5-.8-2.2,0-.3-.3-.2-1.4.9-1.8,1.2c-2.9,2.4-5.6,6.5-9.6,6.7s-3.1,0-3.6-.6,1.6-.5,1.1-1.3-2.8-1.5-3.3-1.9c-3-2.3-5.8-6.1-5.2-10.1s.5-1.6.6-1.6c.3-.3.3.1.4.3.2.5.2,1.2.9,1.2,0-1.3-.6-2.5-.6-3.9.1-3.4,2-5.7,4.2-8,0,2.4.6,4.4,1.7,6.6-.8.1-1.4-.5-1.9-1s-.4-1.1-.9-1c-.4,2.2-.2,4.7.5,6.7s1.8,2.6,1.2,3.5-1.6.8-2.6.8-.6-.1-.5.3,1.4,1.3,1.8,1.6c2.3,1.4,4.4,1.5,7,.8.6.7-1.6,3.8-1.7,4.4s1.2.3,1.5.2c3-.7,3.7-4,5.4-6.1s5.6-4.6,8.9-4.9c-.2,1.2-1.1,2.3-.7,3.6,3.2-3.7,8.9-3.3,12.3-6.8.2,1.3.6,2.3,1.4,3.3s0,.3.4.2c-.2-3.1,2.1-6,5.1-6.6,0,.7-.2,1.4-.2,2.2s-.1.6.3.5,1.4-1.6,1.9-2c2.1-1.5,4.5-1.3,6.9-2s2.7-1.2,2.8-1l-.4,2.4c4.2-.3,6.4-4.4,4.7-8.2s-1.2-2-1.5-1.6c0,.8-.2,2.1-.9,2.6-.7-7.4-6.2-8.5-12.2-10.1-.3,0-.7.1-.6-.4,1.1,0,2.5-.4,3.6-.7s2.2-.6,3.3-.9c.4.3-.5,1.6.2,1.5s1.5-.8,2.2-1c3.2-1.2,6.7-1.5,9.8.3Z"/>
    <path class="st4" d="M219.3,85c.2,0,1.7.6,2,.8,1.3.7,3.7,2.5,3.9,4.1s-.3.2-.4.4c0,.4.5,1.7.6,2.3.2,1.4,0,2.9-.5,4.2s-1.1,1.4-1.3,1.9,0,1.8,0,1.9c-.3.4-.4-.7-.8-.4s0,.4-.2.6c-1.7,2.2-4,1.9-6.4,1s-2.5-1.3-2.7-1.8.7-.8-.7-1.4-2.3.3-2.7.2-.7-2.1-.7-2.5c0-.7.8-1.8.7-2s-1.8-1.8-2.1-2.8-.3-3,0-3.4.3,0,.4.3c.8,2.5,1.4,4.4,4,5.6s1.9.5,2,.5c.3.3-.1.3-.2.4-.8.6-1.8.6-2.8.5-.4.4,1,1.3,1.3,1.5,1.5.9,4.4,1.4,6,.4s1-1.3,1.6-1.9c.4,1.1.4,1.9.2,3,.4.5,2-2.2,2.1-2.5.8-2.3,0-6.2-1.3-8.2s-2.1-2.3-2.2-2.5,0-.2.2-.2Z"/>
    <path class="st0" d="M252.3,40.6c-.1.5.3.3.6.4,6,1.6,11.5,2.7,12.2,10.1.7-.6.9-1.8.9-2.6.3-.4,1.4,1.3,1.5,1.6,1.7,3.8-.6,7.9-4.7,8.2l.4-2.4c-.1-.1-2.4.9-2.8,1-2.3.7-4.8.5-6.9,2s-1.8,2-1.9,2c-.4.2-.3-.3-.3-.5,0-.8.1-1.4.2-2.2-3,.6-5.3,3.5-5.1,6.6-.4.1-.3,0-.4-.2-.8-1-1.2-2.1-1.4-3.3-3.3,3.5-9.1,3-12.3,6.8-.4-1.3.4-2.4.7-3.6-3.3.3-6.9,2.3-8.9,4.9s-2.4,5.4-5.4,6.1-1.6.3-1.5-.2,2.3-3.7,1.7-4.4c-2.6.7-4.7.7-7-.8s-1.7-1.2-1.8-1.6.3-.3.5-.3c.9,0,2,.2,2.6-.8s-.8-2.4-1.2-3.5c-.7-2.1-.9-4.6-.5-6.7.6,0,.6.7.9,1,.5.6,1,1.1,1.9,1-1.1-2.2-1.6-4.2-1.7-6.6,1.2-1.3,2.2-2.6,3.7-3.6.2.4-.2.8-.3,1.2s0,1.5.2,2c.6,1,.8-.9,1.1-1.4,1.7-3.3,6.5-5.4,10-6.1-.6.8-1.3,1.9-1.1,3s0,.4.3.3,4.3-3.3,5.2-3.8c7.6-4.4,12.6-3.1,20.7-3.7Z"/>
  </g>
</svg>